<svg width="28" height="26" viewBox="0 0 28 26" fill="none" xmlns="http://www.w3.org/2000/svg">
<path d="M1.25 1H4.08333L4.65 3.66667M6.91667 14.3333H21.0833L26.75 3.66667H4.65M6.91667 14.3333L4.65 3.66667M6.91667 14.3333L3.6684 17.3905C2.77595 18.2305 3.40802 19.6667 4.67014 19.6667H21.0833M21.0833 19.6667C19.5185 19.6667 18.25 20.8606 18.25 22.3333C18.25 23.8061 19.5185 25 21.0833 25C22.6481 25 23.9167 23.8061 23.9167 22.3333C23.9167 20.8606 22.6481 19.6667 21.0833 19.6667ZM9.75 22.3333C9.75 23.8061 8.48147 25 6.91667 25C5.35186 25 4.08333 23.8061 4.08333 22.3333C4.08333 20.8606 5.35186 19.6667 6.91667 19.6667C8.48147 19.6667 9.75 20.8606 9.75 22.3333Z" stroke="#4D4D4D" stroke-width="2" stroke-linecap="round" stroke-linejoin="round"/>
</svg>
