<svg width="33" height="32" viewBox="0 0 33 32" fill="none" xmlns="http://www.w3.org/2000/svg">
<mask id="mask0_14_16271" style="mask-type:luminance" maskUnits="userSpaceOnUse" x="0" y="0" width="33" height="32">
<rect x="0.172119" width="32" height="32" fill="white"/>
</mask>
<g mask="url(#mask0_14_16271)">
<path d="M13.8426 7.8458L14.2138 13.3657L14.398 16.1401C14.4 16.4255 14.4447 16.7089 14.531 16.9813C14.7535 17.5101 15.289 17.8461 15.8715 17.8227L24.7477 17.242C25.1321 17.2357 25.5034 17.3795 25.7796 17.6417C26.0099 17.8603 26.1585 18.1461 26.2055 18.4536L26.2212 18.6403C25.8539 23.7265 22.1183 27.9689 17.0426 29.064C11.9668 30.1591 6.76183 27.8457 4.25363 23.3799C3.53054 22.0824 3.07889 20.6564 2.92519 19.1853C2.86099 18.7499 2.83273 18.31 2.84066 17.87C2.83273 12.417 6.71598 7.70263 12.1518 6.56611C12.806 6.46423 13.4474 6.81057 13.7098 7.40739C13.7776 7.5456 13.8224 7.69363 13.8426 7.8458Z" fill="#4D4D4D"/>
<path opacity="0.4" d="M29.5056 13.083L29.4963 13.1264L29.4693 13.1896L29.4731 13.3631C29.4592 13.5929 29.3704 13.8139 29.2176 13.9926C29.0583 14.1786 28.8407 14.3053 28.6011 14.3545L28.4549 14.3745L18.2139 15.0381C17.8732 15.0717 17.534 14.9618 17.2808 14.7359C17.0696 14.5475 16.9347 14.2934 16.8965 14.0195L16.2092 3.79335C16.1972 3.75877 16.1972 3.72129 16.2092 3.68671C16.2185 3.40483 16.3427 3.13839 16.5537 2.94691C16.7647 2.75543 17.0452 2.65487 17.3323 2.66769C23.4121 2.82237 28.522 7.19432 29.5056 13.083Z" fill="#4D4D4D"/>
</g>
</svg>
