<svg width="33" height="32" viewBox="0 0 33 32" fill="none" xmlns="http://www.w3.org/2000/svg">
<mask id="mask0_10_1006" style="mask-type:luminance" maskUnits="userSpaceOnUse" x="0" y="0" width="33" height="32">
<rect x="0.171997" width="32" height="32" fill="white"/>
</mask>
<g mask="url(#mask0_10_1006)">
<path d="M13.8424 7.8458L14.2136 13.3657L14.3979 16.1401C14.3999 16.4255 14.4446 16.7089 14.5308 16.9813C14.7534 17.5101 15.2888 17.8461 15.8714 17.8227L24.7476 17.242C25.132 17.2357 25.5032 17.3795 25.7795 17.6417C26.0098 17.8603 26.1584 18.1461 26.2054 18.4536L26.2211 18.6403C25.8538 23.7265 22.1182 27.9689 17.0424 29.064C11.9666 30.1591 6.76171 27.8457 4.25351 23.3799C3.53042 22.0824 3.07876 20.6564 2.92507 19.1853C2.86087 18.7499 2.8326 18.31 2.84054 17.87C2.8326 12.417 6.71586 7.70263 12.1517 6.56611C12.8059 6.46423 13.4473 6.81057 13.7096 7.40739C13.7775 7.5456 13.8223 7.69363 13.8424 7.8458Z" fill="white"/>
<path opacity="0.4" d="M29.5055 13.083L29.4961 13.1264L29.4692 13.1896L29.4729 13.3631C29.4591 13.5929 29.3703 13.8139 29.2175 13.9926C29.0581 14.1786 28.8405 14.3053 28.6009 14.3545L28.4548 14.3745L18.2137 15.0381C17.8731 15.0717 17.5339 14.9618 17.2807 14.7359C17.0695 14.5475 16.9345 14.2934 16.8964 14.0195L16.2091 3.79335C16.1971 3.75877 16.1971 3.72129 16.2091 3.68671C16.2184 3.40483 16.3425 3.13839 16.5536 2.94691C16.7645 2.75543 17.0451 2.65487 17.3321 2.66769C23.412 2.82237 28.5219 7.19432 29.5055 13.083Z" fill="white"/>
</g>
</svg>
