<svg width="52" height="56" viewBox="0 0 52 56" fill="none" xmlns="http://www.w3.org/2000/svg">
<rect x="0.421753" width="51.3398" height="56" rx="8" fill="#D62828"/>
<path d="M20.934 17.6274C19.8961 18.7804 19.8961 20.6463 20.9532 21.7994L23.2596 24.3151C25.4315 26.6842 25.4315 30.5417 23.2596 32.9107L19.0312 28.2985C17.9453 27.1139 17.3975 25.5521 17.3975 24.0007C17.3975 22.4493 17.9453 20.8874 19.0312 19.7029L20.9052 17.6588C20.9148 17.6483 20.9244 17.6379 20.934 17.6274Z" fill="#D62828" stroke="white" stroke-width="2" stroke-miterlimit="10"/>
<path d="M22.7791 23.7899L20.9531 21.7983C19.896 20.6452 19.8864 18.7898 20.9339 17.6263C21.9718 16.5151 23.6247 16.5361 24.653 17.6577C25.172 18.2238 25.4314 18.968 25.4314 19.7018C25.4314 20.4356 25.172 21.1798 24.653 21.7459L24.2206 22.2176" fill="#D62828"/>
<path d="M22.7791 23.7899L20.9531 21.7983C19.896 20.6452 19.8864 18.7898 20.9339 17.6263C21.9718 16.5151 23.6248 16.5361 24.653 17.6577C25.172 18.2238 25.4314 18.968 25.4314 19.7018C25.4314 20.4356 25.172 21.1798 24.653 21.7459L24.2206 22.2176" stroke="white" stroke-width="2" stroke-miterlimit="10"/>
<path d="M31.8412 38.2246C32.8791 37.0715 32.8791 35.2056 31.822 34.0526L29.5155 31.5368C27.3437 29.1678 27.3437 25.3102 29.5155 22.9412L33.744 27.5535C34.8299 28.738 35.3777 30.2999 35.3777 31.8513C35.3777 33.4027 34.8299 34.9645 33.744 36.149L31.87 38.1931C31.8508 38.2141 31.8412 38.2246 31.8412 38.2246Z" fill="#D62828" stroke="white" stroke-width="2" stroke-miterlimit="10"/>
<path d="M29.986 32.0713L31.8119 34.063C32.869 35.216 32.8786 37.0714 31.8311 38.235C30.7932 39.3461 29.1403 39.3251 28.112 38.2035C27.5931 37.6375 27.3336 36.8932 27.3336 36.1595C27.3336 35.4257 27.5931 34.6814 28.112 34.1154L28.5541 33.6332" fill="#D62828"/>
<path d="M29.986 32.0713L31.8119 34.063C32.869 35.216 32.8786 37.0714 31.8311 38.235C30.7932 39.3461 29.1403 39.3251 28.112 38.2035C27.5931 37.6375 27.3336 36.8932 27.3336 36.1595C27.3336 35.4257 27.5931 34.6814 28.112 34.1154L28.5541 33.6332" stroke="white" stroke-width="2" stroke-miterlimit="10"/>
</svg>
