<svg width="23" height="26" viewBox="0 0 23 26" fill="none" xmlns="http://www.w3.org/2000/svg">
<path d="M5.934 2.62737C4.89611 3.78044 4.89611 5.6463 5.95322 6.79937L8.25964 9.31514C10.4315 11.6842 10.4315 15.5417 8.25964 17.9107L4.0312 13.2985C2.94526 12.1139 2.39749 10.5521 2.39749 9.00067C2.39749 7.44928 2.94526 5.8874 4.0312 4.70289L5.90517 2.65882C5.91478 2.64833 5.92439 2.63785 5.934 2.62737Z" fill="#D62828" stroke="white" stroke-width="2" stroke-miterlimit="10"/>
<path d="M7.77906 8.78992L5.95315 6.79826C4.89604 5.6452 4.88642 3.78981 5.93392 2.62627C6.97181 1.51513 8.62475 1.5361 9.65303 2.65771C10.172 3.22376 10.4314 3.96801 10.4314 4.70178C10.4314 5.43555 10.172 6.1798 9.65303 6.74585L9.22058 7.21756" fill="#D62828"/>
<path d="M7.77906 8.78992L5.95315 6.79826C4.89604 5.6452 4.88642 3.78981 5.93392 2.62627C6.97181 1.51513 8.62475 1.5361 9.65303 2.65771C10.172 3.22376 10.4314 3.96801 10.4314 4.70178C10.4314 5.43555 10.172 6.1798 9.65303 6.74585L9.22058 7.21756" stroke="white" stroke-width="2" stroke-miterlimit="10"/>
<path d="M16.8412 23.2246C17.8791 22.0715 17.8791 20.2056 16.822 19.0526L14.5155 16.5368C12.3437 14.1678 12.3437 10.3102 14.5155 7.94121L18.744 12.5535C19.8299 13.738 20.3777 15.2999 20.3777 16.8513C20.3777 18.4027 19.8299 19.9645 18.744 21.149L16.87 23.1931C16.8508 23.2141 16.8412 23.2246 16.8412 23.2246Z" fill="#D62828" stroke="white" stroke-width="2" stroke-miterlimit="10"/>
<path d="M14.986 17.0713L16.8119 19.063C17.869 20.216 17.8786 22.0714 16.8311 23.235C15.7932 24.3461 14.1403 24.3251 13.112 23.2035C12.5931 22.6375 12.3336 21.8932 12.3336 21.1595C12.3336 20.4257 12.5931 19.6814 13.112 19.1154L13.5541 18.6332" fill="#D62828"/>
<path d="M14.986 17.0713L16.8119 19.063C17.869 20.216 17.8786 22.0714 16.8311 23.235C15.7932 24.3461 14.1403 24.3251 13.112 23.2035C12.5931 22.6375 12.3336 21.8932 12.3336 21.1595C12.3336 20.4257 12.5931 19.6814 13.112 19.1154L13.5541 18.6332" stroke="white" stroke-width="2" stroke-miterlimit="10"/>
</svg>
