<svg width="29" height="37" viewBox="0 0 29 37" fill="none" xmlns="http://www.w3.org/2000/svg">
<g filter="url(#filter0_d_14_16588)">
<path d="M14.6111 5.41298C14.3018 5.41298 14.0052 5.53583 13.7866 5.75452C13.5679 5.9732 13.445 6.26979 13.445 6.57906V13.5755H6.44855C6.13929 13.5755 5.84269 13.6984 5.62401 13.9171C5.40533 14.1358 5.28247 14.4323 5.28247 14.7416C5.28247 15.0509 5.40533 15.3475 5.62401 15.5662C5.84269 15.7848 6.13929 15.9077 6.44855 15.9077H13.445V22.9042C13.445 23.2134 13.5679 23.51 13.7866 23.7287C14.0052 23.9474 14.3018 24.0702 14.6111 24.0702C14.9204 24.0702 15.217 23.9474 15.4356 23.7287C15.6543 23.51 15.7772 23.2134 15.7772 22.9042V15.9077H22.7737C23.0829 15.9077 23.3795 15.7848 23.5982 15.5662C23.8169 15.3475 23.9397 15.0509 23.9397 14.7416C23.9397 14.4323 23.8169 14.1358 23.5982 13.9171C23.3795 13.6984 23.0829 13.5755 22.7737 13.5755H15.7772V6.57906C15.7772 6.26979 15.6543 5.9732 15.4356 5.75452C15.217 5.53583 14.9204 5.41298 14.6111 5.41298Z" fill="#FFFFFE"/>
</g>
<defs>
<filter id="filter0_d_14_16588" x="-4.38184" y="0.748657" width="37.9858" height="39.9859" filterUnits="userSpaceOnUse" color-interpolation-filters="sRGB">
<feFlood flood-opacity="0" result="BackgroundImageFix"/>
<feColorMatrix in="SourceAlpha" type="matrix" values="0 0 0 0 0 0 0 0 0 0 0 0 0 0 0 0 0 0 127 0" result="hardAlpha"/>
<feOffset dy="7"/>
<feGaussianBlur stdDeviation="2.5"/>
<feComposite in2="hardAlpha" operator="out"/>
<feColorMatrix type="matrix" values="0 0 0 0 0 0 0 0 0 0 0 0 0 0 0 0 0 0 0.25 0"/>
<feBlend mode="normal" in2="BackgroundImageFix" result="effect1_dropShadow_14_16588"/>
<feBlend mode="normal" in="SourceGraphic" in2="effect1_dropShadow_14_16588" result="shape"/>
</filter>
</defs>
</svg>
