<svg width="29" height="28" viewBox="0 0 29 28" fill="none" xmlns="http://www.w3.org/2000/svg">
<path fill-rule="evenodd" clip-rule="evenodd" d="M20.1916 20.2011L25.0142 14.8777C25.2445 14.6292 25.3624 14.3154 25.3625 14C25.3627 13.7842 25.3077 13.5676 25.196 13.3706C25.1464 13.2828 25.0857 13.1994 25.0142 13.1223L20.1916 7.79894C19.6851 7.23982 18.7954 7.17502 18.2044 7.65422C17.6133 8.13342 17.5448 8.97515 18.0514 9.53427L20.889 12.6666L9.97388 12.6666C9.1955 12.6666 8.56449 13.2636 8.56449 13.9999C8.56449 14.7363 9.1955 15.3333 9.97388 15.3333L20.8892 15.3333L18.0514 18.4658C17.5448 19.0249 17.6133 19.8666 18.2044 20.3458C18.7954 20.825 19.6851 20.7602 20.1916 20.2011ZM11.2687 5.99992C12.0471 5.99992 12.6781 6.59687 12.6781 7.33325L12.6781 9.33325C12.6781 10.0696 13.3091 10.6666 14.0875 10.6666C14.8659 10.6666 15.4969 10.0696 15.4969 9.33325L15.4969 7.33325C15.4969 5.12411 13.6039 3.33325 11.2687 3.33325L7.04056 3.33325C4.70542 3.33325 2.81241 5.12411 2.81241 7.33325L2.81241 20.6666C2.81241 22.8757 4.70542 24.6666 7.04056 24.6666L11.2687 24.6666C13.6039 24.6666 15.4969 22.8757 15.4969 20.6666L15.4969 18.6666C15.4969 17.9302 14.8659 17.3333 14.0875 17.3333C13.3091 17.3333 12.6781 17.9302 12.6781 18.6666L12.6781 20.6666C12.6781 21.403 12.0471 21.9999 11.2687 21.9999L7.04056 21.9999C6.26218 21.9999 5.63118 21.403 5.63118 20.6666L5.63118 7.33325C5.63118 6.59687 6.26218 5.99992 7.04056 5.99992L11.2687 5.99992Z" fill="#4D4D4D"/>
</svg>
