<!DOCTYPE svg PUBLIC "-//W3C//DTD SVG 1.1//EN" "http://www.w3.org/Graphics/SVG/1.1/DTD/svg11.dtd">
<!-- Uploaded to: SVG Repo, www.svgrepo.com, Transformed by: SVG Repo Mixer Tools -->
<svg width="800px" height="800px" viewBox="0 0 24 24" xmlns="http://www.w3.org/2000/svg" fill="#ffffff">
<g id="SVGRepo_bgCarrier" stroke-width="0"/>
<g id="SVGRepo_tracerCarrier" stroke-linecap="round" stroke-linejoin="round"/>
<g id="SVGRepo_iconCarrier"> <path fill="none" stroke="#ffffff" stroke-width="2" d="M20,3 L20,23 L4,23 L4,3 L20,3 Z M8.042,9 L10.042,9 L10.042,7 L8.042,7 L8.042,9 Z M14,9 L16,9 L16,7 L14,7 L14,9 Z M8.042,15 L10.042,15 L10.042,13 L8.042,13 L8.042,15 Z M10.042,23 L14.042,23 L14.042,19 L10.042,19 L10.042,23 Z M14,15 L16,15 L16,13 L14,13 L14,15 Z M2,3 L22,3 L22,1 L2,1 L2,3 Z"/> </g>
</svg>