<svg width="18" height="18" viewBox="0 0 18 18" fill="none" xmlns="http://www.w3.org/2000/svg">
<path fill-rule="evenodd" clip-rule="evenodd" d="M12.9898 12.2094L17.2752 16.4958L16.3919 17.3792L12.0971 13.0844C10.6469 14.2802 8.79082 14.8699 6.9163 14.7302C5.04178 14.5905 3.29362 13.7323 2.03664 12.3347C0.779658 10.937 0.110969 9.108 0.170119 7.22922C0.229268 5.35043 1.01169 3.56707 2.35409 2.25129C3.6965 0.935511 5.49518 0.188977 7.37477 0.167477C9.25437 0.145978 11.0697 0.851174 12.4418 2.1359C13.814 3.42063 14.637 5.18563 14.7391 7.06257C14.8412 8.93951 14.2145 10.7834 12.9898 12.2094ZM13.5002 7.45834C13.5002 5.85599 12.8637 4.31927 11.7307 3.18623C10.5976 2.0532 9.06092 1.41667 7.45857 1.41667C5.85622 1.41667 4.3195 2.0532 3.18647 3.18623C2.05344 4.31927 1.41691 5.85599 1.41691 7.45834C1.41691 9.06069 2.05344 10.5974 3.18647 11.7304C4.3195 12.8635 5.85622 13.5 7.45857 13.5C9.06092 13.5 10.5976 12.8635 11.7307 11.7304C12.8637 10.5974 13.5002 9.06069 13.5002 7.45834Z" fill="#4D4D4D"/>
</svg>
