<svg width="34" height="32" viewBox="0 0 34 32" fill="none" xmlns="http://www.w3.org/2000/svg">
<path d="M17 10.6667C18.5029 10.6667 19.9442 11.2286 21.0069 12.2288C22.0696 13.2289 22.6667 14.5855 22.6667 16C22.6667 17.4145 22.0696 18.771 21.0069 19.7712C19.9442 20.7714 18.5029 21.3333 17 21.3333C15.4971 21.3333 14.0558 20.7714 12.9931 19.7712C11.9303 18.771 11.3333 17.4145 11.3333 16C11.3333 14.5855 11.9303 13.2289 12.9931 12.2288C14.0558 11.2286 15.4971 10.6667 17 10.6667ZM17 13.3333C16.2485 13.3333 15.5279 13.6143 14.9965 14.1144C14.4652 14.6145 14.1667 15.2927 14.1667 16C14.1667 16.7072 14.4652 17.3855 14.9965 17.8856C15.5279 18.3857 16.2485 18.6667 17 18.6667C17.7514 18.6667 18.4721 18.3857 19.0035 17.8856C19.5348 17.3855 19.8333 16.7072 19.8333 16C19.8333 15.2927 19.5348 14.6145 19.0035 14.1144C18.4721 13.6143 17.7514 13.3333 17 13.3333ZM14.1667 29.3333C13.8125 29.3333 13.515 29.0933 13.4583 28.7733L12.9342 25.24C12.0417 24.9067 11.2767 24.4533 10.54 23.92L7.01249 25.2667C6.70082 25.3733 6.31832 25.2667 6.14832 24.9733L3.31499 20.36C3.22828 20.2226 3.19772 20.0602 3.22901 19.9032C3.26029 19.7461 3.35129 19.6051 3.48499 19.5067L6.47416 17.2933L6.37499 16L6.47416 14.6667L3.48499 12.4933C3.35129 12.3948 3.26029 12.2539 3.22901 12.0968C3.19772 11.9398 3.22828 11.7774 3.31499 11.64L6.14832 7.02666C6.31832 6.73332 6.70082 6.61332 7.01249 6.73332L10.54 8.06666C11.2767 7.54666 12.0417 7.09332 12.9342 6.75999L13.4583 3.22666C13.515 2.90666 13.8125 2.66666 14.1667 2.66666H19.8333C20.1875 2.66666 20.485 2.90666 20.5417 3.22666L21.0658 6.75999C21.9583 7.09332 22.7233 7.54666 23.46 8.06666L26.9875 6.73332C27.2992 6.61332 27.6817 6.73332 27.8517 7.02666L30.685 11.64C30.8692 11.9333 30.7842 12.2933 30.515 12.4933L27.5258 14.6667L27.625 16L27.5258 17.3333L30.515 19.5067C30.7842 19.7067 30.8692 20.0667 30.685 20.36L27.8517 24.9733C27.6817 25.2667 27.2992 25.3867 26.9875 25.2667L23.46 23.9333C22.7233 24.4533 21.9583 24.9067 21.0658 25.24L20.5417 28.7733C20.485 29.0933 20.1875 29.3333 19.8333 29.3333H14.1667ZM15.9375 5.33332L15.4133 8.81332C13.7133 9.14666 12.2117 9.99999 11.1208 11.1867L7.70666 9.79999L6.64416 11.5333L9.63332 13.6C9.06666 15.1555 9.06666 16.8444 9.63332 18.4L6.62999 20.48L7.69249 22.2133L11.135 20.8267C12.2258 22 13.7133 22.8533 15.3992 23.1733L15.9233 26.6667H18.0767L18.6008 23.1867C20.2867 22.8533 21.7742 22 22.865 20.8267L26.3075 22.2133L27.37 20.48L24.3667 18.4133C24.9333 16.8533 24.9333 15.16 24.3667 13.6L27.3558 11.5333L26.2933 9.79999L22.8792 11.1867C21.766 9.97375 20.256 9.14356 18.5867 8.82666L18.0625 5.33332H15.9375Z" fill="#4D4D4D"/>
</svg>
